<svg xmlns="http://www.w3.org/2000/svg" width="48" height="48" fill="none"><path d="M29.65 7.254l.464-.693.455-.684 1.023-1.535a.41.41 0 10-.683-.455l-1.096 1.646-.462.692-.468.7a13.514 13.514 0 00-4.884-.897c-1.745 0-3.398.323-4.881.898l-.466-.701-.462-.692-1.098-1.647a.411.411 0 00-.683.455l1.023 1.535.456.684.463.693c-3.484 1.623-5.84 4.696-5.84 8.214h22.98c0-3.517-2.356-6.59-5.84-8.213zm-10.573 4.93a1.23 1.23 0 11-.002-2.461 1.23 1.23 0 01.002 2.461zm9.847 0a1.23 1.23 0 110-2.46 1.23 1.23 0 010 2.46zM12.688 17.11h-.177v18.057a2.601 2.601 0 002.598 2.599h1.877a2.46 2.46 0 00-.099.683v5.199a2.463 2.463 0 004.925 0V38.45a2.53 2.53 0 00-.097-.683h4.572a2.456 2.456 0 00-.097.683v5.199a2.463 2.463 0 004.924 0V38.45c0-.236-.035-.467-.097-.683h1.875c1.433 0 2.6-1.166 2.6-2.6V17.11H12.687zm-4.282 0a2.462 2.462 0 00-2.462 2.462v10.532a2.463 2.463 0 004.924 0V19.572a2.462 2.462 0 00-2.462-2.463zm31.19 0a2.461 2.461 0 00-2.462 2.462v10.532a2.462 2.462 0 004.922 0V19.572a2.46 2.46 0 00-2.46-2.463z" fill="#fff"></path></svg>