<svg xmlns="http://www.w3.org/2000/svg" width="32" height="32" fill="none"><path d="M21 25H11c-2.2 0-4-1.8-4-4V11c0-2.2 1.8-4 4-4h10c2.2 0 4 1.8 4 4v10c0 2.2-1.8 4-4 4zm2-18H9l.7-4.3c.2-1 1-1.7 2-1.7h8.6c1 0 1.8.7 2 1.7L23 7zm-2.7 24h-8.6c-1 0-1.8-.7-2-1.7L9 25h14l-.7 4.3c-.2 1-1 1.7-2 1.7z" stroke="#2F80ED" stroke-width="2" stroke-miterlimit="10" stroke-linecap="round" stroke-linejoin="round"></path><path d="M11 19h3l3-7 2 4h2" stroke="#2F80ED" stroke-width="2" stroke-miterlimit="10" stroke-linecap="round" stroke-linejoin="round"></path></svg>