<svg xmlns="http://www.w3.org/2000/svg" width="32" height="32" fill="none"><g clip-path="url(#clip0_5453_25903)" fill="#2F80ED"><path d="M24 29H8a5 5 0 01-5-5V10a1 1 0 011-1h20a5 5 0 015 5v10a5 5 0 01-5 5zM5 11v13a3 3 0 003 3h16a3 3 0 003-3V14a3 3 0 00-3-3H5z"></path><path d="M26 11a1 1 0 01-1-1V7.25a2.329 2.329 0 00-.78-1.87 1.94 1.94 0 00-1.67-.32L5.78 8.87a1 1 0 00-.78 1 1 1 0 01-2 0 3 3 0 012.33-2.95l16.78-3.81a3.9 3.9 0 013.36.71A4.341 4.341 0 0127 7.25V10a1 1 0 01-1 1zm2 12h-7a4 4 0 110-8h7a1 1 0 011 1v6a1 1 0 01-1 1zm-7-6a2 2 0 000 4h6v-4h-6z"></path></g><defs><clipPath id="clip0_5453_25903"><path fill="#fff" d="M0 0h32v32H0z"></path></clipPath></defs></svg>