<svg xmlns="http://www.w3.org/2000/svg" width="80" height="80" fill="none"><path d="M8.5 20.389c0-2.428 2.412-4.118 4.694-3.29l11.896 4.316a6.5 6.5 0 014.283 6.11v32.769c0 2.428-2.411 4.118-4.694 3.29l-11.896-4.316a6.5 6.5 0 01-4.283-6.11V20.389z" stroke="#F8B000"></path><path d="M11.865 18.706c0-2.427 2.411-4.118 4.693-3.29l11.897 4.316a6.5 6.5 0 014.283 6.11v32.77c0 2.427-2.412 4.117-4.694 3.29l-11.896-4.317a6.5 6.5 0 01-4.283-6.11V18.706z" stroke="url(#paint0_linear_5796_27665)"></path><path d="M16.58 57.293l4.628 1.682" stroke="#F8B000" stroke-linecap="round"></path><path d="M37.3 28.595a1.5 1.5 0 012.035-1.401L54.49 32.98a3.5 3.5 0 012.251 3.27v2.518a1.5 1.5 0 01-2.035 1.402L39.55 34.383a3.5 3.5 0 01-2.251-3.27v-2.518z" stroke="#F8B000"></path><path d="M41.017 26.364a1.5 1.5 0 012.035-1.4l15.156 5.786a3.5 3.5 0 012.252 3.27v2.518a1.5 1.5 0 01-2.035 1.401l-15.156-5.787a3.5 3.5 0 01-2.252-3.27v-2.518z" stroke="url(#paint1_linear_5796_27665)"></path><path d="M44.733 24.134a1.5 1.5 0 012.036-1.4l15.155 5.786a3.5 3.5 0 012.252 3.27v2.518a1.5 1.5 0 01-2.035 1.401l-15.156-5.787a3.5 3.5 0 01-2.252-3.27v-2.518z" stroke="url(#paint2_linear_5796_27665)"></path><path d="M48.45 21.904a1.5 1.5 0 012.036-1.4l15.156 5.786a3.5 3.5 0 012.251 3.27v2.518a1.5 1.5 0 01-2.035 1.401l-15.156-5.787a3.5 3.5 0 01-2.251-3.27v-2.518z" stroke="url(#paint3_linear_5796_27665)"></path><path d="M53.706 36.199c.138.28.168.56.127.774-.04.214-.141.332-.245.383-.103.05-.258.058-.452-.04a1.264 1.264 0 01-.535-.576 1.264 1.264 0 01-.127-.774c.04-.214.142-.332.245-.383.104-.05.259-.058.453.04.194.1.396.295.534.576zm-3.716-1.488c.137.281.168.56.127.775-.04.214-.142.331-.245.382-.104.05-.258.059-.453-.04a1.264 1.264 0 01-.534-.575 1.264 1.264 0 01-.127-.774c.04-.214.142-.332.245-.383.103-.05.258-.058.453.04.194.1.396.295.534.575zm-3.718-1.486c.138.28.168.56.128.774-.041.214-.142.332-.245.382-.104.051-.259.059-.453-.04a1.264 1.264 0 01-.534-.575 1.264 1.264 0 01-.127-.774c.04-.214.141-.332.245-.383.103-.05.258-.058.452.04.194.1.397.295.534.576zM37.3 38.258a1.5 1.5 0 012.036-1.4l15.156 5.786a3.5 3.5 0 012.251 3.27v2.518a1.5 1.5 0 01-2.035 1.401l-15.156-5.787a3.5 3.5 0 01-2.251-3.27v-2.518z" stroke="#F8B000"></path><path d="M41.017 36.029a1.5 1.5 0 012.035-1.402l15.156 5.787a3.5 3.5 0 012.252 3.27v2.518a1.5 1.5 0 01-2.035 1.401l-15.156-5.787a3.5 3.5 0 01-2.252-3.27V36.03z" stroke="url(#paint4_linear_5796_27665)"></path><path d="M44.734 33.798a1.5 1.5 0 012.035-1.401l15.156 5.787a3.5 3.5 0 012.252 3.27v2.517a1.5 1.5 0 01-2.035 1.402l-15.156-5.787a3.5 3.5 0 01-2.252-3.27v-2.518z" stroke="url(#paint5_linear_5796_27665)"></path><path d="M48.451 31.568a1.5 1.5 0 012.035-1.401l15.156 5.786a3.5 3.5 0 012.252 3.27v2.518a1.5 1.5 0 01-2.035 1.402l-15.156-5.787a3.5 3.5 0 01-2.252-3.27v-2.518z" stroke="url(#paint6_linear_5796_27665)"></path><path d="M53.707 45.862c.138.28.168.56.127.774-.04.214-.141.332-.245.383-.103.05-.258.058-.452-.04a1.264 1.264 0 01-.535-.576 1.264 1.264 0 01-.127-.774c.04-.214.142-.332.245-.382.104-.051.259-.059.453.04.194.1.396.294.534.575zm-3.717-1.487c.138.28.168.56.127.774-.04.214-.141.332-.245.383-.103.05-.258.058-.452-.04a1.264 1.264 0 01-.534-.575 1.263 1.263 0 01-.128-.775c.041-.214.142-.331.245-.382.104-.05.259-.059.453.04.194.1.396.294.534.575zM37.3 47.922a1.5 1.5 0 012.036-1.4l15.156 5.786a3.5 3.5 0 012.251 3.27v2.518a1.5 1.5 0 01-2.035 1.401l-15.156-5.786a3.5 3.5 0 01-2.251-3.27v-2.519z" stroke="#F8B000"></path><path d="M41.017 45.693a1.5 1.5 0 012.035-1.402l15.156 5.787a3.5 3.5 0 012.252 3.27v2.518a1.5 1.5 0 01-2.035 1.401L43.269 51.48a3.5 3.5 0 01-2.252-3.27v-2.517z" stroke="url(#paint7_linear_5796_27665)"></path><path d="M44.734 43.462a1.5 1.5 0 012.035-1.401l15.156 5.787a3.5 3.5 0 012.252 3.27v2.517a1.5 1.5 0 01-2.035 1.402L46.986 49.25a3.5 3.5 0 01-2.252-3.27v-2.518z" stroke="url(#paint8_linear_5796_27665)"></path><path d="M48.451 41.232a1.5 1.5 0 012.035-1.401l15.156 5.787a3.5 3.5 0 012.252 3.27v2.518a1.5 1.5 0 01-2.035 1.4L50.703 47.02a3.5 3.5 0 01-2.252-3.27v-2.518z" stroke="url(#paint9_linear_5796_27665)"></path><defs><linearGradient id="paint0_linear_5796_27665" x1="40.389" y1="46.651" x2="24.133" y2="52.218" gradientUnits="userSpaceOnUse"><stop stop-color="#F8B000"></stop><stop offset="1" stop-color="#F8B000" stop-opacity="0"></stop></linearGradient><linearGradient id="paint1_linear_5796_27665" x1="58.637" y1="26.75" x2="52.172" y2="35.856" gradientUnits="userSpaceOnUse"><stop stop-color="#F8B000"></stop><stop offset="1" stop-color="#F8B000" stop-opacity="0"></stop></linearGradient><linearGradient id="paint2_linear_5796_27665" x1="62.353" y1="24.52" x2="55.888" y2="33.627" gradientUnits="userSpaceOnUse"><stop stop-color="#F8B000"></stop><stop offset="1" stop-color="#F8B000" stop-opacity="0"></stop></linearGradient><linearGradient id="paint3_linear_5796_27665" x1="66.07" y1="22.291" x2="59.605" y2="31.396" gradientUnits="userSpaceOnUse"><stop stop-color="#F8B000"></stop><stop offset="1" stop-color="#F8B000" stop-opacity="0"></stop></linearGradient><linearGradient id="paint4_linear_5796_27665" x1="61.703" y1="43.903" x2="57.204" y2="44.69" gradientUnits="userSpaceOnUse"><stop stop-color="#F8B000"></stop><stop offset="1" stop-color="#F8B000" stop-opacity="0"></stop></linearGradient><linearGradient id="paint5_linear_5796_27665" x1="65.42" y1="41.672" x2="60.921" y2="42.459" gradientUnits="userSpaceOnUse"><stop stop-color="#F8B000"></stop><stop offset="1" stop-color="#F8B000" stop-opacity="0"></stop></linearGradient><linearGradient id="paint6_linear_5796_27665" x1="69.137" y1="39.442" x2="64.638" y2="40.229" gradientUnits="userSpaceOnUse"><stop stop-color="#F8B000"></stop><stop offset="1" stop-color="#F8B000" stop-opacity="0"></stop></linearGradient><linearGradient id="paint7_linear_5796_27665" x1="61.703" y1="53.567" x2="57.204" y2="54.354" gradientUnits="userSpaceOnUse"><stop stop-color="#F8B000"></stop><stop offset="1" stop-color="#F8B000" stop-opacity="0"></stop></linearGradient><linearGradient id="paint8_linear_5796_27665" x1="65.42" y1="51.336" x2="60.921" y2="52.123" gradientUnits="userSpaceOnUse"><stop stop-color="#F8B000"></stop><stop offset="1" stop-color="#F8B000" stop-opacity="0"></stop></linearGradient><linearGradient id="paint9_linear_5796_27665" x1="69.137" y1="49.106" x2="64.638" y2="49.893" gradientUnits="userSpaceOnUse"><stop stop-color="#F8B000"></stop><stop offset="1" stop-color="#F8B000" stop-opacity="0"></stop></linearGradient></defs></svg>